<svg width="1920" height="378" viewBox="0 0 1920 378" fill="none" xmlns="http://www.w3.org/2000/svg">
<path d="M4 309.5H0V379H1920V346.5H1829.5V302.5L1828 288.5H1814.5V273.5L1809 271.5L1804 273.5V285.5H1791.5V293H1787.5V285.5H1783C1783 283.5 1781.9 279.4 1777.5 279C1773.1 278.6 1771.33 283.167 1771 285.5H1758L1729.5 305.5L1699 340.5L1696.5 326H1686.5V319.5L1675.5 321.5V340.5L1670 334.5H1659L1654.5 340.5V326L1652.5 321.5H1645.5V305.5L1640.5 303V321.5H1636.5V340.5H1631V308.5L1622.5 303L1624 119.5L1622.5 117V110.5L1619 105.5V79.5L1616.5 77.5V70.5H1622.5L1616.5 56.5H1607L1605 46.5H1592.5V38L1588.5 32L1558.5 38V54L1541.5 56.5L1539 261L1477 240.5L1445.5 274.5V289L1429 286L1432.5 49H1416V20H1378L1347 0L1203.5 94V242.5L1189 243V240.5L1187 239.5L1161 241.5V244.5L1155 245.5V340.5H1010V293.5H1007V286L1004.5 281.5H995.5V291.5H987L985 293.5H969.5V340.5H904V309L889.5 306V279.5H886V306L870.5 309V340.5H778.5L776.5 306L729 303.5V295L709.5 290L681 292V306H611L612.5 223.5L607.5 221V188H603V184.5L590 178.5H489L464 188V354H199V344V333.5H176V341.5H169.5V338H161.5V333.5H120L93 354V324.5V286H89V269.5L93 261.5H4L9 269.5V282.5H4V309.5Z" fill="#3b3839"/>
</svg>
