<svg width="1920" height="133" viewBox="0 0 1920 133" fill="none" xmlns="http://www.w3.org/2000/svg">
<path d="M266 103H0V134.5H1920.5V113.5H1878V104L1595.5 106.5H1483.5L1478.5 104C1477.83 101.833 1475.1 96.8 1469.5 94C1463.9 91.2 1458.83 95.1667 1457 97.5V106.5H1451.5C1450.33 103.5 1446.8 97.5 1442 97.5C1437.2 97.5 1434.33 103.5 1433.5 106.5C1430.5 105.667 1423 106.5 1423 104C1423 97.5 1421 98.5 1394.5 98.5H1343.5C1333.9 98.5 1332.33 103.5 1333.5 109.5H1312.5H1267C1265.67 109.5 1262 108.4 1258 104C1253 98.5 1251.5 107 1249 100.5C1246.5 94 1240 92.5 1227.5 91.5C1217.5 90.7 1215 97.1667 1215 100.5C1213.17 101.667 1208 104 1202 104C1194.5 104 1194 100.5 1187.5 100.5C1181 100.5 1163.5 105.5 1157.5 104C1151.5 102.5 1136.5 100.5 1125.5 100.5C1116.7 100.5 1110.83 106.5 1109 109.5H939V46H933.5V25.5L930 17V10H922.5C923.5 6.66667 924.1 0 918.5 0C912.9 0 913.5 6.66667 914.5 10H908V17L904 22.5V46L898 48.5L895 109.5L718 106L715.5 99.5H584.5V106L266 103Z" fill="#10151a"/>
</svg>
