<svg width="576" height="134" viewBox="0 0 576 134" fill="none" xmlns="http://www.w3.org/2000/svg">
<path d="M162.432 66.4349C131.328 80.2632 169.344 67.0111 15.552 110.224H0V135H576C575.808 112.337 570.125 66.6654 548.928 65.2826C522.432 63.5541 480.384 48.5735 475.776 43.9641C471.168 39.3547 461.376 35.3214 453.888 30.1358C446.4 24.9502 447.552 27.2549 441.216 25.5264C434.88 23.7979 429.696 17.4599 426.816 16.8838C423.936 16.3076 422.208 22.0694 418.176 22.0694C414.144 22.0694 411.264 16.3076 410.112 14.5791C408.96 12.8505 406.656 8.81726 402.624 6.51256C398.592 4.20785 398.592 9.39347 398.016 12.2743C397.44 15.1552 395.136 18.6123 390.528 18.6123C385.92 18.6123 382.464 14.0029 380.736 10.5458C379.008 7.08876 382.464 1.32698 380.16 0.174622C377.856 -0.977732 377.28 3.63167 364.032 12.2743C350.784 20.917 341.568 21.4932 334.08 21.4932C326.592 21.4932 307.584 7.66491 301.824 3.63167C296.064 -0.401565 292.032 3.63167 284.544 6.51256C277.056 9.39344 274.752 7.08873 266.112 8.81726C257.472 10.5458 265.536 14.0029 252.288 14.0029C239.04 14.0029 233.856 29.5596 220.608 35.8976C207.36 42.2355 193.536 52.6067 162.432 66.4349Z" fill="#718084"/>
</svg>
