<svg width="1920" height="141" viewBox="0 0 1920 141" fill="none" xmlns="http://www.w3.org/2000/svg">
<path d="M0.5 142.384L0 94.3838C1.33333 92.7171 4.4 90.4838 8 92.8838C11.6 95.2838 12.8333 91.8838 13 89.8838C11.6667 89.7171 8.8 88.6838 8 85.8838C7 82.3838 11.5 81.3838 11 79.3838C10.5 77.3838 20 81.3838 21.5 79.3838C23 77.3838 31 77.8838 31 80.3838C31 82.3838 34.3333 82.5504 36 82.3838C36 82.0504 36.2 81.0838 37 79.8838C37.8 78.6838 40.3333 79.3838 41.5 79.8838C41 79.2171 40.3 77.2838 41.5 74.8838C43 71.8838 47.5 72.3838 46 69.8838C44.5 67.3838 51.5 62.3838 53.5 63.3838C55.5 64.3838 56.5 63.8838 61.5 63.3838C65.5 62.9838 68.8333 66.2171 70 67.8838C71 66.8838 73.7 65.2838 76.5 66.8838C79.3 68.4838 77.6667 71.2171 76.5 72.3838C78.5 70.5504 83.7 67.2838 88.5 68.8838C94.5 70.8838 91.5 79.3838 90 85.8838C88.5 92.3838 95 87.3838 95 84.8838C95 82.3838 99 80.8838 101.5 78.8838C103.5 77.2838 106 78.8838 107 79.8838C109.333 78.7171 114.5 76.6838 116.5 77.8838C119 79.3838 118.5 86.8838 117.5 87.8838C116.5 88.8838 115.5 92.8838 120 91.8838C124.5 90.8838 121.5 88.8838 125 87.3838C127.8 86.1838 128.5 88.8838 128.5 90.3838C128.5 89.0504 129.4 86.5838 133 87.3838C137.5 88.3838 135 86.8838 137.5 90.8838C140 94.8838 139.5 87.3838 143 87.8838C146.5 88.3838 142.5 90.8838 150 95.3838C157.5 99.8838 150.5 92.8838 157.5 92.8838C163.1 92.8838 170.833 111.217 174 120.384C178.333 117.717 187 111.584 187 108.384C187 104.384 194 105.384 194.5 101.884C195 98.3838 198 98.3838 203 99.3838C207 100.184 207.333 104.384 207 106.384C209.167 103.717 214.3 98.5838 217.5 99.3838C221.5 100.384 221 98.8838 221 96.8838C221 94.8838 222.5 93.3838 225 91.8838C227 90.6838 230.167 92.0504 231.5 92.8838C232.167 91.7171 234.7 89.3838 239.5 89.3838C245.5 89.3838 241.5 91.8838 247 91.3838C252.5 90.8838 252.5 89.8838 260.5 96.8838C268.5 103.884 265 93.8838 269.5 94.3838C274 94.8838 273 99.3838 273.5 94.3838C273.9 90.3838 279 88.7171 281.5 88.3838C278.333 84.7171 271.3 77.0838 268.5 75.8838C265 74.3838 261.5 74.3838 267.5 72.8838C273.5 71.3838 278 75.3838 285 81.8838C292 88.3838 290.5 85.3838 288.5 77.8838C286.5 70.3838 279.5 65.8838 277.5 62.8838C275.5 59.8838 271 59.8838 276.5 58.8838C282 57.8838 292.5 69.8838 295 74.3838C297.5 78.8838 297 75.8838 298.5 66.8838C300 57.8838 301.5 67.3838 301.5 72.3838C301.5 77.3838 302 69.8838 307 63.3838C312 56.8838 314.5 65.3838 309.5 70.3838C305.5 74.3838 308.5 76.7171 310.5 77.3838C316.833 72.8838 329.7 64.1838 330.5 65.3838C331.5 66.8838 324.5 75.8838 330 70.3838C335.5 64.8838 338.5 69.3838 349.5 68.8838C358.3 68.4838 360.833 71.7171 361 73.3838C361 73.0504 361.5 71.9838 363.5 70.3838C365.5 68.7838 366.667 72.0504 367 73.8838C367.5 73.7171 368.7 72.9838 369.5 71.3838C370.5 69.3838 372 68.8838 375.5 68.8838C378.3 68.8838 379.667 72.5504 380 74.3838C381.5 72.5504 385.1 69.0838 387.5 69.8838C390.5 70.8838 391 68.8838 391.5 73.3838C391.9 76.9838 397 74.8838 399.5 73.3838C400.167 72.2171 403 69.8838 409 69.8838C415 69.8838 414.833 72.8838 414 74.3838C415.5 73.2171 418.8 71.7838 420 75.3838C421.5 79.8838 431 73.3838 433.5 74.3838C436 75.3838 436.5 73.8838 435.5 71.3838C434.5 68.8838 437.5 70.3838 437.5 67.3838C437.5 64.3838 438.5 62.3838 443 62.3838C447.5 62.3838 445 64.3838 446 58.3838C447 52.3838 454.5 56.3838 455 60.3838C455.4 63.5838 459.833 60.7171 462 58.8838C461.333 56.8838 461.2 52.7838 466 52.3838C472 51.8838 471.5 58.3838 475.5 53.8838C479.5 49.3838 483 55.8838 482.5 58.8838C482 61.8838 479.5 64.3838 484 67.3838C488.5 70.3838 486 71.8838 486.5 77.8838C487 83.8838 488.5 83.8838 493 72.8838C497.5 61.8838 499.5 69.8838 500.5 76.3838C501.5 82.8838 504.5 80.8838 510 75.8838C515.5 70.8838 516 78.3838 520.5 71.8838C525 65.3838 528.5 72.3838 530.5 72.8838C532.5 73.3838 535 77.3838 533.5 81.3838C532 85.3838 537 82.8838 542 82.8838C547 82.8838 548 86.8838 546 91.8838C544 96.8838 547 101.884 549.5 98.3838C552 94.8838 554.5 94.3838 557 100.384C559.5 106.384 559 114.384 552.5 121.884C547.3 127.884 570.333 128.717 582.5 128.384C583.167 125.05 584.9 117.984 586.5 116.384C588.5 114.384 588.5 111.384 586.5 110.384C584.5 109.384 583.5 109.884 581 107.384C578.5 104.884 592 87.8838 594.5 87.8838C596.5 87.8838 603.333 103.55 606.5 111.384C606.667 108.55 607.9 101.784 611.5 97.3838C616 91.8838 618.5 91.8838 623.5 91.8838C627.5 91.8838 627.5 89.2171 627 87.8838C625.167 87.2171 621.4 85.0838 621 81.8838C620.5 77.8838 622 77.3838 627 69.8838C632 62.3838 638 63.8838 639 59.8838C640 55.8838 646 59.3838 644 55.8838C642.4 53.0838 645 49.7171 646.5 48.3838C644.833 48.2171 641.3 46.6838 640.5 41.8838C639.5 35.8838 645 35.3838 647.5 36.8838C649.5 38.0838 653.667 34.0504 655.5 31.8838C653.667 31.8838 649.9 30.8838 649.5 26.8838C649 21.8838 651.5 21.8838 660.5 21.8838C669.5 21.8838 669.5 29.8838 672 25.8838C674.5 21.8838 682.5 28.3838 681.5 25.8838C680.7 23.8838 685.167 21.3838 687.5 20.3838C686 19.7171 683.2 17.3838 684 13.3838C685 8.38376 688.5 8.38376 697 9.88376C705.5 11.3838 701.5 8.88376 710.5 12.3837C719.5 15.8837 706 19.3838 712.5 19.8838C719 20.3838 717 26.3838 722 28.3838C726 29.9838 728.333 24.3838 729 21.3838C727.667 21.5504 724.7 20.8838 723.5 16.8838C722 11.8838 727.5 8.88376 732.5 8.38376C737.5 7.88376 739 14.3838 740.5 8.88376C742 3.38376 747 5.38377 754 1.38377C761 -2.61623 768 2.88377 766.5 7.38377C765 11.8838 766.5 13.8838 770.5 16.8838C774.5 19.8838 777 11.8838 781.5 10.3838C785.1 9.18377 787.333 11.2171 788 12.3837C788.5 10.2171 790.7 5.58376 795.5 4.38376C801.5 2.88376 804.5 8.38376 804.5 12.8838C804.5 16.4838 808.167 19.3837 810 20.3837C813.667 17.3837 822.4 11.5837 828 12.3837C835 13.3837 835 18.3837 841.5 21.8837C848 25.3837 844.5 16.8837 851 17.8837C857.5 18.8837 851.5 23.8837 859.5 25.3837C867.5 26.8837 872 34.3837 875.5 40.8837C879 47.3837 874.5 48.3837 869 51.8837C863.5 55.3837 870.5 59.3837 870.5 57.3837C870.5 55.3837 879 53.8837 880 57.8837C881 61.8837 880 60.8837 887 59.3837C894 57.8837 887 60.8838 900.5 66.8838C914 72.8838 909.5 77.3837 908.5 86.8837C907.5 96.3837 933.5 88.8837 938.5 89.3837C943.5 89.8837 943 87.3837 942.5 81.8837C942 76.3837 944 75.3837 948 75.8837C952 76.3837 950 74.8837 951.5 71.3837C953 67.8837 962.5 67.3838 969 67.8838C974.2 68.2838 975.167 71.0504 975 72.3837C978.5 70.7171 986.9 67.5837 992.5 68.3837C999.5 69.3837 999.5 75.3837 1005.5 79.3837C1011.5 83.3837 1009 72.8837 1013 70.3837C1016.16 68.408 1019.58 68.2214 1020.95 68.3778C1020.59 68.2951 1019.76 67.3179 1019 63.8837C1018 59.3837 1019 57.3837 1024 57.3837C1029 57.3837 1027 56.3837 1029 52.3837C1030.6 49.1837 1037.33 51.0504 1040.5 52.3837C1040.67 50.8837 1042.1 46.8837 1046.5 42.8837C1052 37.8837 1054 42.3837 1057 43.3837C1060 44.3837 1062 39.3837 1067.5 44.8837C1073 50.3837 1072 47.8837 1076.5 46.3837C1081 44.8837 1082 47.3837 1086 52.3837C1090 57.3837 1092 48.8837 1088.5 47.8837C1085 46.8837 1084 46.3837 1082.5 39.3837C1081 32.3837 1090 35.3837 1099.5 33.3837C1107.1 31.7837 1111.33 38.0504 1112.5 41.3837C1116.67 43.5504 1124.7 49.1837 1123.5 54.3837C1122 60.8837 1122 59.3837 1130.5 57.8837C1139 56.3837 1138.5 56.3837 1143 57.3837C1147.5 58.3837 1147.5 52.3837 1151 53.8837C1154.5 55.3837 1155 57.3837 1158 54.8837C1161 52.3837 1151 51.3837 1156 50.3837C1161 49.3837 1157.5 43.8837 1150.5 43.8837C1143.5 43.8837 1152.5 38.8837 1147.5 39.3837C1142.5 39.8837 1144 24.8837 1154 22.3837C1164 19.8837 1171 18.8837 1172 24.8837C1173 30.8837 1176 30.8837 1178 29.3837C1180 27.8837 1179.5 25.3837 1186 24.3837C1192.5 23.3837 1194.5 26.8837 1196 30.3837C1197.5 33.8838 1207 33.3837 1205 37.8837C1203 42.3837 1204 42.3837 1208 45.8837C1212 49.3837 1212.5 54.8837 1206 56.3837C1199.5 57.8837 1203.5 61.8838 1204 67.8838C1204.5 73.8838 1213 68.8837 1219.5 70.3837C1224.7 71.5837 1228.67 74.2171 1230 75.3837C1231.67 73.8837 1236 69.8838 1240 65.8838C1245 60.8838 1253 61.8837 1259 61.8837C1265 61.8837 1262.5 67.8838 1269.5 64.8838C1276.5 61.8838 1277.5 64.8838 1278.5 67.8838C1279.5 70.8838 1285.5 69.8837 1286 74.3837C1286.5 78.8837 1290.5 82.3837 1296.5 79.8837C1302.5 77.3837 1304 79.3837 1313 86.8837C1322 94.3837 1305.5 96.3837 1299 111.884C1293.8 124.284 1305.83 129.717 1312.5 130.884L1335.5 133.384C1334.83 123.384 1334.5 102.884 1338.5 100.884C1343.5 98.3837 1346 102.384 1349 100.384C1352 98.3837 1357 101.384 1359.5 102.384C1362 103.384 1363.5 97.3837 1360.5 94.3837C1357.5 91.3837 1357.5 94.3837 1355.5 96.3837C1353.5 98.3837 1349 97.8837 1347 94.8837C1345 91.8837 1346.5 88.3837 1345 85.8837C1343.5 83.3837 1346.5 76.8837 1351 72.8837C1354.6 69.6837 1360.83 68.8837 1363.5 68.8837C1362.33 67.8837 1359.7 65.4837 1358.5 63.8837C1357 61.8837 1360 57.8837 1362.5 52.8837C1365 47.8837 1364.5 46.3837 1371.5 45.3837C1378.5 44.3837 1374.5 47.8837 1384 43.8837C1393.5 39.8837 1394 41.3837 1400.5 47.8837C1407 54.3837 1404.5 60.8838 1400.5 65.8838C1397.3 69.8838 1389.83 70.8837 1386.5 70.8837C1387.5 73.2171 1389 78.5837 1387 81.3837C1384.5 84.8837 1388 84.8837 1390.5 88.3837C1393 91.8837 1398 86.8837 1395.5 83.3837C1393 79.8837 1398.5 74.3837 1408.5 76.8837C1418.5 79.3837 1412.5 76.8837 1414 74.3837C1415.5 71.8837 1426.5 68.8837 1432 68.8837C1437.5 68.8837 1434 71.8837 1442.5 69.8837C1451 67.8837 1454.5 71.8837 1463 77.8837C1469.8 82.6837 1470.17 91.2171 1469.5 94.8837C1470.33 94.7171 1472.7 95.1837 1475.5 98.3837C1479 102.384 1473.5 102.884 1481.5 106.884C1489.5 110.884 1484.5 104.384 1493 102.884C1501.5 101.384 1501.5 100.384 1512 108.884C1522.5 117.384 1525 109.384 1521.5 104.884C1518.7 101.284 1513 98.3837 1510.5 97.3837C1507.83 95.8837 1501.8 92.4837 1499 90.8837C1495.5 88.8837 1502.5 85.3837 1502.5 82.3837C1502.5 79.3837 1510 74.3837 1517 76.8837C1524 79.3837 1522.5 75.3837 1525 71.3837C1527 68.1837 1532.5 69.0504 1535 69.8837C1536 68.2171 1538.9 65.2838 1542.5 66.8838C1547 68.8838 1547.5 68.8837 1552 68.3837C1556.5 67.8837 1553 64.8837 1557 60.8837C1561 56.8837 1559 62.3837 1571.5 61.8837C1584 61.3837 1582 65.3837 1583 69.3837C1584 73.3837 1602 66.8837 1605.5 71.3837C1609 75.8837 1604 73.3837 1613 74.3837C1622 75.3837 1621 81.3837 1624.5 89.3837C1628 97.3837 1632 94.8837 1640 95.8837C1648 96.8837 1646 101.884 1651 101.884C1656 101.884 1660 102.884 1661.5 108.384C1663 113.884 1670 110.384 1673 109.384C1676 108.384 1675 100.884 1678.5 100.884C1682 100.884 1681 89.3837 1687.5 91.3837C1694 93.3837 1695 83.3837 1698.5 85.3837C1702 87.3837 1700 82.8837 1702.5 80.8837C1705 78.8837 1708.5 79.3837 1706 75.8837C1703.5 72.3837 1706.5 70.8837 1713.5 63.8837C1720.5 56.8837 1719 61.8837 1723.5 58.8837C1728 55.8837 1732 50.8837 1739 55.8837C1746 60.8837 1745.5 54.3837 1748.5 56.3837C1751.5 58.3837 1755.5 50.8837 1758.5 53.3837C1761.5 55.8837 1762.5 45.3837 1769 47.3837C1775.5 49.3837 1772 43.8837 1777.5 43.8837C1783 43.8837 1785 47.3837 1786 51.3837C1787 55.3837 1793 47.8837 1793 50.8837C1793 53.8837 1799 44.3837 1802.5 46.3837C1806 48.3837 1806.5 49.8837 1811.5 48.8837C1816.5 47.8837 1817.5 49.3837 1821 51.3837C1824.5 53.3837 1829 44.3837 1832.5 45.3837C1836 46.3837 1835 48.8837 1836.5 46.3837C1838 43.8837 1841 41.8837 1846.5 44.8837C1852 47.8837 1850.5 45.8837 1853.5 42.3837C1856.5 38.8837 1866.5 37.8837 1877.5 36.3837C1888.5 34.8837 1885 37.3837 1891 40.8837C1897 44.3837 1902.5 34.8837 1910.5 34.8837C1916.9 34.8837 1919.5 37.5504 1920 38.8837V142.384H0.5Z" fill="#27272a"/>
</svg>
